<?xml version="1.0" encoding="UTF-8"?>
<svg xmlns="http://www.w3.org/2000/svg" xmlns:xlink="http://www.w3.org/1999/xlink" width="25pt" height="25pt" viewBox="0 0 25 25" version="1.1">
<g id="surface1">
<path style=" stroke:none;fill-rule:nonzero;fill:rgb(0%,0%,0%);fill-opacity:1;" d="M 23.152344 12.722656 C 23.050781 12.515625 23.050781 12.285156 23.152344 12.078125 L 24.078125 10.1875 C 24.59375 9.132812 24.183594 7.878906 23.148438 7.328125 L 21.289062 6.34375 C 21.085938 6.234375 20.949219 6.046875 20.910156 5.820312 L 20.546875 3.746094 C 20.34375 2.589844 19.277344 1.816406 18.113281 1.980469 L 16.027344 2.273438 C 15.804688 2.304688 15.582031 2.234375 15.417969 2.074219 L 13.90625 0.613281 C 13.0625 -0.203125 11.738281 -0.203125 10.898438 0.613281 L 9.382812 2.074219 C 9.222656 2.234375 9 2.304688 8.773438 2.273438 L 6.6875 1.980469 C 5.527344 1.816406 4.457031 2.59375 4.253906 3.746094 L 3.890625 5.820312 C 3.851562 6.046875 3.714844 6.234375 3.511719 6.34375 L 1.652344 7.328125 C 0.617188 7.878906 0.210938 9.132812 0.726562 10.1875 L 1.648438 12.078125 C 1.75 12.285156 1.75 12.515625 1.648438 12.722656 L 0.726562 14.613281 C 0.210938 15.667969 0.617188 16.921875 1.652344 17.472656 L 3.511719 18.460938 C 3.714844 18.566406 3.851562 18.757812 3.890625 18.980469 L 4.253906 21.054688 C 4.4375 22.105469 5.34375 22.84375 6.378906 22.84375 C 6.480469 22.84375 6.585938 22.835938 6.6875 22.820312 L 8.773438 22.527344 C 9 22.496094 9.222656 22.566406 9.382812 22.726562 L 10.898438 24.1875 C 11.320312 24.597656 11.859375 24.800781 12.402344 24.800781 C 12.941406 24.800781 13.480469 24.597656 13.90625 24.1875 L 15.417969 22.726562 C 15.582031 22.566406 15.804688 22.496094 16.027344 22.527344 L 18.113281 22.820312 C 19.277344 22.984375 20.34375 22.210938 20.546875 21.054688 L 20.910156 18.980469 C 20.949219 18.757812 21.085938 18.566406 21.289062 18.460938 L 23.148438 17.472656 C 24.183594 16.921875 24.59375 15.667969 24.078125 14.613281 Z M 22.476562 16.210938 L 20.617188 17.195312 C 20.023438 17.511719 19.617188 18.070312 19.503906 18.734375 L 19.136719 20.808594 C 19.066406 21.199219 18.707031 21.460938 18.3125 21.40625 L 16.230469 21.109375 C 15.566406 21.015625 14.90625 21.230469 14.421875 21.699219 L 12.910156 23.164062 C 12.625 23.4375 12.179688 23.4375 11.894531 23.164062 L 10.378906 21.699219 C 9.972656 21.300781 9.4375 21.089844 8.878906 21.089844 C 8.777344 21.089844 8.675781 21.097656 8.570312 21.109375 L 6.488281 21.40625 C 6.09375 21.460938 5.734375 21.199219 5.664062 20.808594 L 5.300781 18.734375 C 5.183594 18.070312 4.777344 17.511719 4.183594 17.195312 L 2.324219 16.210938 C 1.972656 16.023438 1.835938 15.601562 2.007812 15.242188 L 2.933594 13.351562 C 3.230469 12.746094 3.230469 12.054688 2.933594 11.453125 L 2.007812 9.558594 C 1.835938 9.203125 1.972656 8.777344 2.324219 8.589844 L 4.183594 7.605469 C 4.777344 7.289062 5.183594 6.730469 5.300781 6.070312 L 5.664062 3.992188 C 5.734375 3.601562 6.09375 3.339844 6.488281 3.398438 L 8.570312 3.691406 C 9.238281 3.785156 9.894531 3.570312 10.378906 3.105469 L 11.894531 1.640625 C 12.179688 1.363281 12.625 1.363281 12.910156 1.640625 L 14.421875 3.105469 C 14.90625 3.570312 15.566406 3.785156 16.230469 3.691406 L 18.3125 3.398438 C 18.707031 3.339844 19.066406 3.601562 19.136719 3.992188 L 19.503906 6.070312 C 19.617188 6.730469 20.023438 7.289062 20.617188 7.605469 L 22.476562 8.589844 C 22.828125 8.777344 22.964844 9.203125 22.792969 9.558594 L 21.867188 11.453125 C 21.570312 12.054688 21.570312 12.746094 21.867188 13.351562 L 22.792969 15.242188 C 22.964844 15.601562 22.828125 16.023438 22.476562 16.210938 Z M 22.476562 16.210938 "/>
<path style=" stroke:none;fill-rule:nonzero;fill:rgb(0%,0%,0%);fill-opacity:1;" d="M 17.625 7.175781 C 17.347656 6.894531 16.894531 6.894531 16.613281 7.175781 L 7.175781 16.613281 C 6.894531 16.894531 6.894531 17.347656 7.175781 17.625 C 7.316406 17.765625 7.496094 17.835938 7.679688 17.835938 C 7.863281 17.835938 8.046875 17.765625 8.1875 17.625 L 17.625 8.1875 C 17.90625 7.90625 17.90625 7.453125 17.625 7.175781 Z M 17.625 7.175781 "/>
<path style=" stroke:none;fill-rule:nonzero;fill:rgb(0%,0%,0%);fill-opacity:1;" d="M 9.539062 5.964844 C 8.09375 5.964844 6.917969 7.140625 6.917969 8.585938 C 6.917969 10.03125 8.09375 11.210938 9.539062 11.210938 C 10.988281 11.210938 12.164062 10.03125 12.164062 8.585938 C 12.164062 7.140625 10.988281 5.964844 9.539062 5.964844 Z M 9.539062 9.777344 C 8.882812 9.777344 8.347656 9.246094 8.347656 8.585938 C 8.347656 7.929688 8.882812 7.394531 9.539062 7.394531 C 10.199219 7.394531 10.734375 7.929688 10.734375 8.585938 C 10.734375 9.246094 10.199219 9.777344 9.539062 9.777344 Z M 9.539062 9.777344 "/>
<path style=" stroke:none;fill-rule:nonzero;fill:rgb(0%,0%,0%);fill-opacity:1;" d="M 15.261719 13.59375 C 13.816406 13.59375 12.640625 14.769531 12.640625 16.214844 C 12.640625 17.660156 13.816406 18.835938 15.261719 18.835938 C 16.707031 18.835938 17.882812 17.660156 17.882812 16.214844 C 17.882812 14.769531 16.707031 13.59375 15.261719 13.59375 Z M 15.261719 17.40625 C 14.605469 17.40625 14.070312 16.871094 14.070312 16.214844 C 14.070312 15.558594 14.605469 15.023438 15.261719 15.023438 C 15.917969 15.023438 16.453125 15.558594 16.453125 16.214844 C 16.453125 16.871094 15.917969 17.40625 15.261719 17.40625 Z M 15.261719 17.40625 "/>
</g>
</svg>
