<?xml version="1.0" encoding="UTF-8"?>
<svg xmlns="http://www.w3.org/2000/svg" xmlns:xlink="http://www.w3.org/1999/xlink" width="15pt" height="15pt" viewBox="0 0 15 15" version="1.1">
<g id="surface1">
<path style=" stroke:none;fill-rule:nonzero;fill:rgb(100%,10.588235%,6.27451%);fill-opacity:1;" d="M 7.558594 0.21875 L 7.5 14.78125 L 11.824219 8.507812 C 12.421875 7.65625 12.773438 6.613281 12.773438 5.492188 C 12.773438 2.601562 10.441406 0.25 7.558594 0.21875 Z M 7.558594 0.21875 "/>
<path style=" stroke:none;fill-rule:nonzero;fill:rgb(100%,27.058824%,10.588235%);fill-opacity:1;" d="M 11.894531 5.492188 C 11.894531 6.613281 11.601562 7.65625 11.105469 8.507812 L 7.5 14.78125 L 3.175781 8.507812 C 2.578125 7.65625 2.226562 6.613281 2.226562 5.492188 C 2.226562 2.582031 4.585938 0.21875 7.5 0.21875 C 7.519531 0.21875 7.539062 0.21875 7.558594 0.21875 C 9.957031 0.257812 11.894531 2.605469 11.894531 5.492188 Z M 11.894531 5.492188 "/>
<path style=" stroke:none;fill-rule:nonzero;fill:rgb(83.921569%,98.039216%,100%);fill-opacity:1;" d="M 7.5 1.097656 L 7.5 9.886719 C 9.925781 9.886719 11.894531 7.921875 11.894531 5.492188 C 11.894531 3.066406 9.925781 1.097656 7.5 1.097656 Z M 7.5 1.097656 "/>
<path style=" stroke:none;fill-rule:nonzero;fill:rgb(100%,100%,100%);fill-opacity:1;" d="M 11.015625 5.492188 C 11.015625 3.066406 9.441406 1.097656 7.5 1.097656 C 5.074219 1.097656 3.105469 3.066406 3.105469 5.492188 C 3.105469 7.921875 5.074219 9.886719 7.5 9.886719 C 9.441406 9.886719 11.015625 7.921875 11.015625 5.492188 Z M 11.015625 5.492188 "/>
<path style=" stroke:none;fill-rule:nonzero;fill:rgb(100%,10.588235%,6.27451%);fill-opacity:1;" d="M 7.5 2.855469 L 7.5 8.128906 C 8.953125 8.128906 10.136719 6.945312 10.136719 5.492188 C 10.136719 4.039062 8.953125 2.855469 7.5 2.855469 Z M 7.5 2.855469 "/>
<path style=" stroke:none;fill-rule:nonzero;fill:rgb(100%,27.058824%,10.588235%);fill-opacity:1;" d="M 9.257812 5.492188 C 9.257812 4.039062 8.46875 2.855469 7.5 2.855469 C 6.046875 2.855469 4.863281 4.039062 4.863281 5.492188 C 4.863281 6.945312 6.046875 8.128906 7.5 8.128906 C 8.46875 8.128906 9.257812 6.945312 9.257812 5.492188 Z M 9.257812 5.492188 "/>
<path style=" stroke:none;fill-rule:nonzero;fill:rgb(0%,0%,0%);fill-opacity:1;" d="M 7.5 0 C 4.472656 0 2.007812 2.464844 2.007812 5.492188 C 2.007812 6.625 2.347656 7.710938 2.992188 8.632812 L 7.320312 14.90625 C 7.359375 14.964844 7.429688 15 7.5 15 C 7.570312 15 7.640625 14.964844 7.679688 14.90625 L 12.007812 8.636719 C 12.652344 7.710938 12.992188 6.625 12.992188 5.492188 C 12.992188 2.464844 10.527344 0 7.5 0 Z M 11.644531 8.382812 L 7.5 14.394531 L 3.355469 8.382812 C 2.761719 7.535156 2.445312 6.535156 2.445312 5.492188 C 2.445312 2.707031 4.714844 0.441406 7.5 0.441406 C 10.285156 0.441406 12.554688 2.707031 12.554688 5.492188 C 12.554688 6.535156 12.238281 7.535156 11.644531 8.382812 Z M 11.644531 8.382812 "/>
<path style=" stroke:none;fill-rule:nonzero;fill:rgb(0%,0%,0%);fill-opacity:1;" d="M 10.355469 5.492188 C 10.355469 3.917969 9.074219 2.636719 7.5 2.636719 C 5.925781 2.636719 4.644531 3.917969 4.644531 5.492188 C 4.644531 7.066406 5.925781 8.351562 7.5 8.351562 C 9.074219 8.351562 10.355469 7.066406 10.355469 5.492188 Z M 5.082031 5.492188 C 5.082031 4.160156 6.167969 3.078125 7.5 3.078125 C 8.832031 3.078125 9.917969 4.160156 9.917969 5.492188 C 9.917969 6.824219 8.832031 7.910156 7.5 7.910156 C 6.167969 7.910156 5.082031 6.824219 5.082031 5.492188 Z M 5.082031 5.492188 "/>
<path style=" stroke:none;fill-rule:nonzero;fill:rgb(0%,0%,0%);fill-opacity:1;" d="M 7.5 0.878906 C 6.4375 0.878906 5.402344 1.25 4.578125 1.921875 C 4.484375 1.996094 4.472656 2.136719 4.550781 2.230469 C 4.625 2.324219 4.765625 2.335938 4.859375 2.261719 C 5.601562 1.652344 6.539062 1.320312 7.5 1.320312 C 9.800781 1.320312 11.675781 3.191406 11.675781 5.492188 C 11.675781 7.796875 9.800781 9.667969 7.5 9.667969 C 5.199219 9.667969 3.324219 7.796875 3.324219 5.492188 C 3.324219 4.53125 3.660156 3.59375 4.265625 2.851562 C 4.34375 2.757812 4.332031 2.617188 4.238281 2.542969 C 4.144531 2.464844 4.003906 2.480469 3.925781 2.574219 C 3.253906 3.394531 2.886719 4.429688 2.886719 5.492188 C 2.886719 8.039062 4.957031 10.109375 7.5 10.109375 C 10.042969 10.109375 12.113281 8.039062 12.113281 5.492188 C 12.113281 2.949219 10.042969 0.878906 7.5 0.878906 Z M 7.5 0.878906 "/>
</g>
</svg>
